{"title":"Real Time With Bill Maher JUST OVERTIME 2013.03.22 XviD","uid":8289800,"size":70535696,"categoryP":"video","categoryS":"tv_shows","magnet":"?xt=urn:btih:fa17730d87b61bec940cb1f09e6d5b1eeea73704&amp;dn=Real+Time+With+Bill+Maher+JUST+OVERTIME+2013.03.22+XviD+&amp;tr=udp%3A%2F%2Ftracker.openbittorrent.com%3A80&amp;tr=udp%3A%2F%2Fopen.demonii.com%3A1337&amp;tr=udp%3A%2F%2Ftracker.coppersurfer.tk%3A6969&amp;tr=udp%3A%2F%2Fexodus.desync.com%3A6969","seeders":1,"leechers":0,"uploader":"BoonesFerry","files":1,"time":1364025061,"description":"\nReal.Time.With.Bill.Maher.JUST.OVERTIME.2013.03.22.XviD.avi\n\n\n\n\n\nVideo\nID                               : 0\nFormat                           : MPEG-4 Visual\nFormat profile                   : Advanced Simple@L5\nFormat settings, BVOP            : No\nFormat settings, QPel            : No\nFormat settings, GMC             : No warppoints\nFormat settings, Matrix          : Default (H.263)\nCodec ID                         : XVID\nCodec ID/Hint                    : XviD\nDuration                         : 7mn 17s\nBit rate                         : 1 149 Kbps\nWidth                            : 624 pixels\nHeight                           : 352 pixels\nDisplay aspect ratio             : 16:9\nFrame rate                       : 29.970 fps\nColor space                      : YUV\nChroma subsampling               : 4:2:0\nBit depth                        : 8 bits\nScan type                        : Progressive\nCompression mode                 : Lossy\nBits/(Pixel*Frame)               : 0.174\nStream size                      : 60.0 MiB (89%)\nWriting library                  : XviD 1.2.1 (UTC 2008-12-04)\n\nAudio\nID                               : 1\nFormat                           : MPEG Audio\nFormat version                   : Version 1\nFormat profile                   : Layer 3\nMode                             : Joint stereo\nMode extension                   : MS Stereo\nCodec ID                         : 55\nCodec ID/Hint                    : MP3\nDuration                         : 7mn 17s\nBit rate mode                    : Constant\nBit rate                         : 128 Kbps\nChannel(s)                       : 2 channels\nSampling rate                    : 44.1 KHz\nCompression mode                 : Lossy\nStream size                      : 6.68 MiB (10%)\nAlignment                        : Split accross interleaves\nInterleave, duration             : 33 ms (1.00 video frame)\nInterleave, preload duration     : 500 ms\nWriting library                  : LAME3.98.4\n\n\n\n","torrent":{"xt":"urn:btih:fa17730d87b61bec940cb1f09e6d5b1eeea73704","amp;dn":"Real+Time+With+Bill+Maher+JUST+OVERTIME+2013.03.22+XviD+","amp;tr":["udp%3A%2F%2Ftracker.openbittorrent.com%3A80","udp%3A%2F%2Fopen.demonii.com%3A1337","udp%3A%2F%2Ftracker.coppersurfer.tk%3A6969","udp%3A%2F%2Fexodus.desync.com%3A6969"],"infoHash":"fa17730d87b61bec940cb1f09e6d5b1eeea73704","infoHashBuffer":{"type":"Buffer","data":[250,23,115,13,135,182,27,236,148,12,177,240,158,109,91,30,238,167,55,4]},"announce":[],"urlList":[]}}